<svg width="16" height="16" viewBox="0 0 16 16" fill="none" xmlns="http://www.w3.org/2000/svg">
<path d="M10.9801 10.0533C10.3592 9.6408 9.88288 9.04439 9.61785 8.34764C9.30614 7.54818 8.71161 7.02291 8.0276 7.02291C7.34359 7.02291 6.74905 7.55973 6.43735 8.35918C6.17232 9.05593 5.696 9.65234 5.0751 10.0649C4.596 10.3737 4.31316 10.7575 4.31316 11.1731C4.31316 12.1833 5.97557 13.0001 8.0276 13.0001C10.0796 13.0001 11.742 12.1833 11.742 11.1731C11.742 10.746 11.4592 10.3621 10.9801 10.0533Z" fill="#FDE047"/>
<path d="M6.2182 6.10819C7.04756 5.98528 7.59108 5.01646 7.43218 3.94428C7.27328 2.8721 6.47214 2.10257 5.64277 2.22548C4.81341 2.34839 4.26989 3.31721 4.42879 4.38939C4.58769 5.46157 5.38884 6.23111 6.2182 6.10819Z" fill="#FDE047"/>
<path d="M3.68329 8.87896C4.31978 8.55171 4.49306 7.61991 4.07034 6.79772C3.64761 5.97553 2.78894 5.57431 2.15246 5.90156C1.51597 6.22881 1.34269 7.16061 1.76541 7.9828C2.18814 8.80499 3.04681 9.20621 3.68329 8.87896Z" fill="#FDE047"/>
<path d="M11.6287 4.38652C11.7876 3.31434 11.2441 2.34553 10.4147 2.22261C9.58537 2.0997 8.78422 2.86923 8.62532 3.94141C8.46642 5.01359 9.00994 5.98241 9.8393 6.10532C10.6687 6.22824 11.4698 5.4587 11.6287 4.38652Z" fill="#FDE047"/>
<path d="M14.2909 7.98253C14.7136 7.16034 14.5403 6.22853 13.9038 5.90128C13.2673 5.57403 12.4087 5.97526 11.9859 6.79745C11.5632 7.61964 11.7365 8.55144 12.373 8.87869C13.0095 9.20594 13.8681 8.80471 14.2909 7.98253Z" fill="#FDE047"/>
</svg>
